<svg xmlns="http://www.w3.org/2000/svg" viewBox="0 0 64 64" width="64" height="64"><defs><linearGradient id="gC" x1="0" y1="0" x2="1" y2="1"><stop offset="0" stop-color="#FF8A1F"></stop><stop offset="1" stop-color="#FF4D00"></stop></linearGradient></defs><rect x="0" y="0" width="64" height="64" rx="14" fill="url(#gC)"></rect><g transform="translate(32,32) scale(0.72) translate(-32,-32)"><g fill="none" stroke="#FFFFFF" stroke-width="5" stroke-linecap="round" stroke-linejoin="round"><path d="M24,6 C18,6 19,15 19,23 C19,29 15,30 9,32 C15,34 19,35 19,41 C19,49 18,58 24,58"></path><path d="M40,6 C46,6 45,15 45,23 C45,29 49,30 55,32 C49,34 45,35 45,41 C45,49 46,58 40,58"></path></g><circle cx="32" cy="24" r="5" fill="#FFFFFF"></circle><path d="M25,37 L39,37 L32,47 Z" fill="#FFFFFF"></path></g></svg>