<svg xmlns="http://www.w3.org/2000/svg" viewBox="0 0 286 96" width="286" height="96"><defs><linearGradient id="gO" x1="0" y1="0" x2="1" y2="1"><stop offset="0" stop-color="#FF8A1F"></stop><stop offset="1" stop-color="#FF4D00"></stop></linearGradient></defs><g transform="translate(20,16)" fill="none" stroke="url(#gO)" stroke-width="4.5" stroke-linecap="round" stroke-linejoin="round">
<path d="M24,6 C18,6 19,15 19,23 C19,29 15,30 9,32 C15,34 19,35 19,41 C19,49 18,58 24,58"></path>
<path d="M40,6 C46,6 45,15 45,23 C45,29 49,30 55,32 C49,34 45,35 45,41 C45,49 46,58 40,58"></path>
</g>
<g transform="translate(20,16)" fill="url(#gO)"><circle cx="32" cy="24" r="5"></circle><path d="M25,37 L39,37 L32,47 Z"></path></g><g fill="#1A1208"><path transform="translate(92.00,58.0) scale(0.03400,-0.03400)" d="M342 416H250V0H79V416H17V558H79V574Q79 677 138.0 730.5Q197 784 311 784Q330 784 339 783V638Q290 641 270.0 624.0Q250 607 250 563V558H342Z"></path><path transform="translate(103.64,58.0) scale(0.03400,-0.03400)" d="M585 238H198Q202 186 231.5 158.5Q261 131 304 131Q368 131 393 185H575Q561 130 524.5 86.0Q488 42 433.0 17.0Q378 -8 310 -8Q228 -8 164.0 27.0Q100 62 64.0 127.0Q28 192 28 279Q28 366 63.5 431.0Q99 496 163.0 531.0Q227 566 310 566Q391 566 454.0 532.0Q517 498 552.5 435.0Q588 372 588 288Q588 264 585 238ZM413 333Q413 377 383.0 403.0Q353 429 308 429Q265 429 235.5 404.0Q206 379 199 333Z"></path><path transform="translate(123.98,58.0) scale(0.03400,-0.03400)" d="M373 145V0H286Q193 0 141.0 45.5Q89 91 89 194V416H21V558H89V694H260V558H372V416H260V192Q260 167 272.0 156.0Q284 145 312 145Z"></path><path transform="translate(137.19,58.0) scale(0.03400,-0.03400)" d="M308 566Q413 566 483.5 511.0Q554 456 576 356H394Q371 420 305 420Q258 420 230.0 383.5Q202 347 202 279Q202 211 230.0 174.5Q258 138 305 138Q371 138 394 202H576Q554 104 483.0 48.0Q412 -8 308 -8Q226 -8 162.5 27.0Q99 62 63.5 127.0Q28 192 28 279Q28 366 63.5 431.0Q99 496 162.5 531.0Q226 566 308 566Z"></path><path transform="translate(157.16,58.0) scale(0.03400,-0.03400)" d="M617 326V0H447V303Q447 359 418.0 390.0Q389 421 340 421Q291 421 262.0 390.0Q233 359 233 303V0H62V740H233V483Q259 520 304.0 542.0Q349 564 405 564Q501 564 559.0 500.5Q617 437 617 326Z"></path></g><g fill="#FF6A00"><path transform="translate(179.47,58.0) scale(0.03400,-0.03400)" d="M405 566Q474 566 530.0 531.0Q586 496 618.5 431.0Q651 366 651 280Q651 194 618.5 128.5Q586 63 530.0 27.5Q474 -8 405 -8Q346 -8 302.0 15.5Q258 39 233 78V0H62V740H233V479Q257 518 302.0 542.0Q347 566 405 566ZM354 417Q303 417 267.5 380.0Q232 343 232 279Q232 215 267.5 178.0Q303 141 354 141Q405 141 441.0 178.5Q477 216 477 280Q477 344 441.5 380.5Q406 417 354 417Z"></path><path transform="translate(201.96,58.0) scale(0.03400,-0.03400)" d="M408 564V383H361Q297 383 265.0 355.5Q233 328 233 259V0H62V558H233V465Q263 511 308.0 537.5Q353 564 408 564Z"></path><path transform="translate(215.91,58.0) scale(0.03400,-0.03400)" d="M274 566Q333 566 377.5 542.0Q422 518 446 479V558H617V0H446V79Q421 40 376.5 16.0Q332 -8 273 -8Q205 -8 149.0 27.5Q93 63 60.5 128.5Q28 194 28 280Q28 366 60.5 431.0Q93 496 149.0 531.0Q205 566 274 566ZM324 417Q273 417 237.5 380.5Q202 344 202 280Q202 216 237.5 178.5Q273 141 324 141Q375 141 410.5 178.0Q446 215 446 279Q446 343 410.5 380.0Q375 417 324 417Z"></path><path transform="translate(238.40,58.0) scale(0.03400,-0.03400)" d="M46 708Q46 748 74.5 774.5Q103 801 148 801Q192 801 220.5 774.5Q249 748 249 708Q249 669 220.5 642.5Q192 616 148 616Q103 616 74.5 642.5Q46 669 46 708ZM233 558V0H62V558Z"></path><path transform="translate(247.83,58.0) scale(0.03400,-0.03400)" d="M617 326V0H447V303Q447 359 418.0 390.0Q389 421 340 421Q291 421 262.0 390.0Q233 359 233 303V0H62V558H233V484Q259 521 303.0 542.5Q347 564 402 564Q500 564 558.5 500.5Q617 437 617 326Z"></path></g></svg>